<?xml version="1.0" encoding="UTF-8"?>
<svg xmlns="http://www.w3.org/2000/svg" viewBox="0 0 993.73 3975.91">
  <defs>
    <style>
      .cls-1 {
        letter-spacing: -.01em;
      }

      .cls-2 {
        letter-spacing: 0em;
      }

      .cls-3 {
        fill: #a8754d;
      }

      .cls-3, .cls-4, .cls-5, .cls-6, .cls-7, .cls-8, .cls-9, .cls-10, .cls-11 {
        stroke-width: 0px;
      }

      .cls-12 {
        stroke: #ccc;
      }

      .cls-12, .cls-13, .cls-8, .cls-14 {
        fill: #000;
      }

      .cls-15 {
        letter-spacing: 0em;
      }

      .cls-16 {
        letter-spacing: 0em;
      }

      .cls-17 {
        letter-spacing: -.02em;
      }

      .cls-18 {
        fill: #fff;
      }

      .cls-18, .cls-13, .cls-14 {
        font-family: FranklinGothicURW-Boo, 'FranklinGothic URW';
      }

      .cls-18, .cls-14 {
        font-size: 16px;
      }

      .cls-19 {
        letter-spacing: -.01em;
      }

      .cls-4 {
        fill: #ae8e1b;
      }

      .cls-5 {
        fill: #031826;
      }

      .cls-6 {
        fill: #540c0f;
      }

      .cls-7 {
        fill: #945e5e;
      }

      .cls-13 {
        font-size: 12px;
      }

      .cls-20 {
        letter-spacing: -.02em;
      }

      .cls-21 {
        letter-spacing: -.02em;
      }

      .cls-22 {
        letter-spacing: -.02em;
      }

      .cls-23 {
        letter-spacing: 0em;
      }

      .cls-24 {
        letter-spacing: 0em;
      }

      .cls-25 {
        letter-spacing: 0em;
      }

      .cls-26 {
        letter-spacing: -.02em;
      }

      .cls-27 {
        letter-spacing: 0em;
      }

      .cls-28 {
        letter-spacing: -.01em;
      }

      .cls-29 {
        letter-spacing: 0em;
      }

      .cls-30 {
        letter-spacing: 0em;
      }

      .cls-31 {
        letter-spacing: 0em;
      }

      .cls-32 {
        fill: none;
        stroke: #000;
        stroke-miterlimit: 10;
      }

      .cls-33 {
        letter-spacing: 0em;
      }

      .cls-34 {
        letter-spacing: -.01em;
      }

      .cls-35 {
        letter-spacing: 0em;
      }

      .cls-9 {
        fill: #458189;
      }

      .cls-36 {
        letter-spacing: 0em;
      }

      .cls-10 {
        fill: #3c3b8e;
      }

      .cls-37 {
        letter-spacing: .03em;
      }

      .cls-38 {
        letter-spacing: 0em;
      }

      .cls-39 {
        letter-spacing: .03em;
      }

      .cls-40 {
        letter-spacing: -.03em;
      }

      .cls-11 {
        fill: #6a66a3;
      }

      .cls-41 {
        letter-spacing: 0em;
      }

      .cls-42 {
        letter-spacing: 0em;
      }

      .cls-43 {
        letter-spacing: 0em;
      }

      .cls-44 {
        letter-spacing: .03em;
      }
    </style>
  </defs>
  <g id="fl-legend-continuous-size-0-svg-screenshot-container">
    <circle id="legend" class="cls-12" cx="496.87" cy="389.95" r="7"/>
  </g>
  <g id="pluto">
    <circle class="cls-11" cx="496.87" cy="3957.75" r="18.16"/>
  </g>
  <g id="neptune">
    <circle class="cls-9" cx="496.87" cy="3773.29" r="27.45"/>
  </g>
  <g id="uranus">
    <circle class="cls-32" cx="496.87" cy="3600.15" r="42.86"/>
    <g>
      <line class="cls-32" x1="379.9" y1="3600.15" x2="427.58" y2="3600.15"/>
      <polygon class="cls-8" points="433.16 3600.15 425.3 3603.36 427.17 3600.15 425.3 3596.94 433.16 3600.15"/>
    </g>
  </g>
  <g id="saturn">
    <circle class="cls-4" cx="496.87" cy="3383.91" r="70.66"/>
    <path class="cls-4" d="M495.62,3352.09c-80.26,7.3-143.87,29.27-142.07,49.06s68.33,29.9,148.59,22.59c80.27-7.31,143.88-29.27,142.08-49.05-1.8-19.79-68.33-29.91-148.61-22.61ZM499.79,3397.88c-55.89,5.09-101.98.69-102.93-9.81s43.58-23.16,99.47-28.25c55.9-5.09,101.99-.69,102.95,9.82s-43.58,23.14-99.48,28.23Z"/>
  </g>
  <g id="jupiter">
    <circle class="cls-7" cx="496.87" cy="2940.48" r="262.43"/>
    <text class="cls-14" transform="translate(387.17 365.25)"><tspan x="0" y="0">1 pe</tspan><tspan class="cls-35" x="30.26" y="0">r</tspan><tspan x="35.66" y="0">son named a</tspan><tspan class="cls-39" x="123.61" y="0">f</tspan><tspan class="cls-20" x="128.86" y="0">t</tspan><tspan class="cls-38" x="133.5" y="0">er </tspan><tspan class="cls-43" x="151.09" y="0">t</tspan><tspan class="cls-38" x="155.93" y="0">he plan</tspan><tspan class="cls-31" x="206.25" y="0">e</tspan><tspan x="214.46" y="0">t</tspan></text>
    <text class="cls-18" transform="translate(474.34 2940.48)"><tspan x="0" y="0">Jupi</tspan><tspan class="cls-17" x="26.83" y="0">t</tspan><tspan class="cls-36" x="31.47" y="0">er</tspan></text>
    <text class="cls-18" transform="translate(474.59 3391.11)"><tspan class="cls-16" x="0" y="0">S</tspan><tspan class="cls-34" x="9.14" y="0">a</tspan><tspan class="cls-21" x="17.42" y="0">t</tspan><tspan x="22.05" y="0">u</tspan><tspan class="cls-41" x="30.7" y="0">r</tspan><tspan x="35.89" y="0">n</tspan></text>
    <text class="cls-14" transform="translate(603.37 3604.81)"><tspan class="cls-30" x="0" y="0">U</tspan><tspan class="cls-23" x="9.57" y="0">r</tspan><tspan x="14.82" y="0">anus</tspan></text>
    <text class="cls-14" transform="translate(598.62 3777.95)"><tspan class="cls-24" x="0" y="0">N</tspan><tspan class="cls-36" x="10.45" y="0">e</tspan><tspan class="cls-2" x="18.77" y="0">p</tspan><tspan class="cls-22" x="27.26" y="0">t</tspan><tspan class="cls-38" x="31.89" y="0">une</tspan></text>
    <text class="cls-14" transform="translate(610.34 3962.41)"><tspan class="cls-34" x="0" y="0">P</tspan><tspan x="8.77" y="0">lu</tspan><tspan class="cls-26" x="21.1" y="0">t</tspan><tspan class="cls-38" x="25.78" y="0">o</tspan></text>
    <text class="cls-13" transform="translate(186.17 3603.81)"><tspan class="cls-15" x="0" y="0">N</tspan><tspan x="7.85" y="0">o one h</tspan><tspan class="cls-25" x="45.53" y="0">a</tspan><tspan x="51.85" y="0">s named </tspan><tspan class="cls-42" x="98.73" y="0">t</tspan><tspan x="102.37" y="0">heir ba</tspan><tspan class="cls-28" x="137.58" y="0">b</tspan><tspan x="143.85" y="0">y </tspan><tspan class="cls-29" x="151.83" y="0">U</tspan><tspan class="cls-27" x="159.01" y="0">r</tspan><tspan x="162.95" y="0">anus</tspan></text>
  </g>
  <g id="mars">
    <circle class="cls-6" cx="496.87" cy="2346.54" r="237.45"/>
  </g>
  <g id="earth">
    <circle class="cls-10" cx="496.87" cy="1972.16" r="42.86"/>
    <g id="mercury">
      <circle class="cls-3" cx="496.87" cy="628.23" r="113.4"/>
      <text class="cls-18" transform="translate(469.54 633.5)"><tspan x="0" y="0">Me</tspan><tspan class="cls-19" x="21.28" y="0">r</tspan><tspan class="cls-1" x="26.35" y="0">c</tspan><tspan class="cls-38" x="33.65" y="0">u</tspan><tspan class="cls-37" x="42.3" y="0">r</tspan><tspan x="48.02" y="0">y</tspan></text>
      <text class="cls-18" transform="translate(478.62 1977.26)"><tspan class="cls-27" x="0" y="0">E</tspan><tspan x="8.75" y="0">a</tspan><tspan class="cls-44" x="17.22" y="0">r</tspan><tspan class="cls-41" x="23.01" y="0">t</tspan><tspan class="cls-38" x="27.86" y="0">h</tspan></text>
      <text class="cls-18" transform="translate(479.74 2346.54)"><tspan x="0" y="0">Ma</tspan><tspan class="cls-33" x="21.42" y="0">r</tspan><tspan x="26.83" y="0">s</tspan></text>
    </g>
  </g>
  <g id="venus">
    <circle class="cls-5" cx="496.87" cy="1338.37" r="496.87"/>
    <text class="cls-18" transform="translate(476.32 1346.45)"><tspan class="cls-40" x="0" y="0">V</tspan><tspan class="cls-36" x="8.03" y="0">enus</tspan></text>
  </g>
</svg>